# xmcd CD database file
#
# Track frame offsets:
#	183
#	4373
#	21528
#	38105
#	52340
#	64900
#	80973
#	98258
#	109718
#	124363
#	143578
#	154705
#	173023
#
# Disc length: 2566 seconds
#
# Revision: 0
# Processed by: cddbd v1.4PL0 Copyright (c) Steve Scherf et al.
# Submitted via: CDex 1.51
#
DISCID=b10a040d
DTITLE=Thierry Mutin - Chants du Nouveau Monde
DYEAR=1995
DGENRE=New Age
TTITLE0=Ouverture
TTITLE1=Chant de Crusoë
TTITLE2=Chant de l'Ile
TTITLE3=Chant du Continent
TTITLE4=Chant des Architectes
TTITLE5=Chant des Tentatives
TTITLE6=Chant de la Terre
TTITLE7=Chant des Bâtisseurs
TTITLE8=Chant des Machines
TTITLE9=Chant de l'Air
TTITLE10=Chant des Sentinelles
TTITLE11=Chant des Voyageurs
TTITLE12=Chant du Nouveau Monde
EXTD=YEAR: 1995
EXTT0=
EXTT1=
EXTT2=
EXTT3=
EXTT4=
EXTT5=
EXTT6=
EXTT7=
EXTT8=
EXTT9=
EXTT10=
EXTT11=
EXTT12=
PLAYORDER=
